<?xml version="1.0" standalone="no"?>
<!DOCTYPE svg PUBLIC "-//W3C//DTD SVG 20010904//EN"
 "http://www.w3.org/TR/2001/REC-SVG-20010904/DTD/svg10.dtd">
<svg version="1.0" xmlns="http://www.w3.org/2000/svg"
 width="262.000000pt" height="260.000000pt" viewBox="0 0 262.000000 260.000000"
 preserveAspectRatio="xMidYMid meet">

<g transform="translate(0.000000,260.000000) scale(0.100000,-0.100000)"
fill="#000000" stroke="none">
<path d="M1310 2197 c0 -130 -49 -248 -171 -407 -79 -104 -101 -146 -125 -241
-31 -119 -2 -291 64 -381 156 -215 194 -284 190 -343 -1 -19 -3 -35 -4 -35 -1
0 -27 12 -59 26 l-57 26 -26 -25 c-15 -13 -40 -32 -57 -42 -20 -12 -13 -3 18
25 l49 43 -32 14 c-44 18 -47 17 -65 -17 -9 -17 -30 -40 -48 -50 -44 -27 -57
-25 -17 3 19 12 42 36 52 53 l18 31 -40 11 c-39 10 -41 9 -56 -19 -14 -29 -87
-89 -107 -89 -6 0 8 13 30 29 43 31 73 67 73 87 0 6 -12 14 -26 17 -21 4 -33
-2 -57 -30 -30 -34 -85 -69 -94 -59 -3 2 8 11 24 19 15 9 41 29 57 45 l29 31
-34 9 c-27 7 -39 5 -59 -10 -30 -22 -120 -51 -120 -39 0 5 19 13 43 19 23 6
51 18 62 26 19 13 18 15 -19 22 -28 5 -54 2 -88 -11 -27 -9 -52 -15 -55 -11
-3 3 3 8 13 12 10 3 28 9 39 14 l20 9 -20 1 c-11 1 -56 7 -100 14 -54 9 -74
10 -61 2 10 -6 57 -41 105 -77 107 -81 159 -112 239 -138 81 -28 194 -28 282
-1 36 11 85 20 110 20 l45 0 -25 -20 c-14 -11 -35 -23 -47 -26 -13 -3 -23 -10
-23 -15 0 -14 15 -10 43 11 36 29 48 24 12 -5 -25 -21 -29 -30 -26 -66 2 -29
-1 -39 -9 -34 -6 4 -9 12 -7 19 2 6 1 21 -4 33 -11 30 -71 39 -129 18 -72 -25
-101 -62 -113 -141 -7 -40 -7 -40 23 -36 17 2 35 13 41 23 8 17 6 19 -21 19
-16 0 -30 5 -30 11 0 8 13 9 38 5 33 -5 42 -2 62 18 l22 25 -38 6 c-57 10 -63
13 -26 14 18 1 42 -4 54 -10 16 -9 24 -7 44 12 28 26 26 29 -18 39 -27 7 -23
8 24 6 35 0 54 -5 50 -11 -4 -5 -6 -32 -6 -60 1 -33 0 -38 -3 -15 -6 47 -13
52 -42 30 -23 -17 -24 -20 -13 -58 7 -21 12 -50 11 -63 0 -21 -27 59 -29 86 0
5 -9 0 -21 -12 -17 -17 -19 -24 -10 -41 6 -11 10 -36 10 -54 -1 -30 -2 -30 -8
9 -4 24 -10 46 -14 49 -12 13 -48 -28 -42 -47 4 -10 1 -27 -5 -36 -8 -15 -9
-13 -4 10 8 35 -2 34 -46 -5 l-35 -33 35 39 c23 26 29 37 17 33 -10 -4 -22 -7
-27 -7 -4 0 -11 -11 -14 -24 -3 -14 -18 -38 -32 -55 -31 -37 -29 -38 27 -7 26
14 70 26 107 30 34 3 76 13 92 21 38 20 82 75 97 122 9 31 12 34 12 13 1 -14
7 -34 15 -45 7 -11 16 -29 19 -40 2 -11 4 -4 4 16 0 20 3 42 8 49 6 9 2 10
-16 5 l-24 -7 24 23 c23 21 23 23 5 30 -10 3 -22 5 -26 2 -22 -13 9 84 35 108
20 19 21 20 2 13 -17 -7 -18 -5 -8 8 7 8 10 18 6 21 -3 4 -2 7 3 7 5 0 9 64 9
145 l0 146 -55 25 c-67 31 -116 67 -131 97 -9 17 -4 15 22 -10 36 -33 132 -83
162 -83 13 0 17 8 17 34 0 19 3 41 6 50 3 9 1 16 -6 16 -27 0 -159 62 -190 90
l-35 30 50 -30 c70 -41 185 -83 186 -67 0 6 4 33 8 58 l8 47 -41 12 c-44 13
-159 71 -153 77 2 2 24 -8 48 -21 24 -13 67 -31 95 -39 l52 -15 6 45 c10 78 9
81 -34 93 -22 5 -58 15 -81 21 -72 18 -37 18 41 -1 41 -9 78 -16 83 -13 4 2 7
30 7 63 l0 58 -47 12 c-27 6 -59 18 -73 26 l-25 15 25 -7 c14 -4 46 -13 73
-20 l47 -12 0 62 0 63 -40 18 c-23 10 -43 22 -46 26 -3 5 15 0 38 -11 l43 -19
3 51 c3 45 0 55 -20 70 l-23 17 23 -6 c19 -5 22 -1 22 23 0 33 -17 231 -25
284 -3 26 -2 30 4 15 8 -19 22 -117 37 -262 6 -62 10 -70 30 -55 5 4 1 0 -8
-10 -13 -12 -18 -32 -18 -72 0 -31 2 -56 5 -56 4 0 19 7 35 15 40 21 38 12 -2
-13 -30 -19 -33 -25 -33 -76 -1 -31 3 -56 9 -56 5 0 29 11 53 25 23 14 43 24
43 21 0 -3 -25 -20 -55 -38 l-55 -33 0 -57 c0 -68 5 -70 75 -32 27 14 43 19
36 11 -6 -8 -34 -24 -61 -36 -52 -22 -53 -24 -64 -108 l-6 -43 42 17 c49 19
112 56 148 87 20 16 19 14 -4 -12 -22 -23 -156 -103 -183 -107 -4 -1 -20 -115
-16 -115 13 0 155 76 188 101 l40 30 -44 -41 c-25 -22 -77 -57 -117 -76 -61
-29 -72 -39 -78 -65 -14 -69 -13 -70 58 -42 35 14 87 43 115 64 27 21 47 31
44 24 -7 -21 -111 -88 -176 -115 l-54 -23 -7 -60 c-3 -33 -6 -83 -5 -111 1
-51 1 -51 11 -16 7 24 43 67 123 145 128 125 155 163 186 264 17 58 21 90 17
160 -4 95 -8 105 -142 358 -34 64 -75 167 -111 277 -31 97 -61 176 -66 176 -5
0 -9 -33 -9 -73z"/>
<path d="M1576 1085 c-78 -28 -166 -125 -202 -224 -10 -25 -24 -53 -31 -62
-12 -15 -11 -16 11 -12 18 4 27 15 36 49 7 25 16 47 20 49 4 2 2 -13 -3 -35
-13 -47 -8 -54 27 -41 20 8 26 17 26 41 0 42 20 119 33 127 6 4 7 1 2 -7 -8
-13 -24 -140 -18 -140 2 0 15 7 28 16 19 13 25 25 25 53 0 35 28 136 36 129 2
-2 -3 -26 -11 -53 -16 -51 -20 -109 -7 -103 62 30 62 31 62 72 0 23 5 48 10
56 6 10 7 -3 3 -38 l-6 -53 27 12 c20 9 26 20 26 43 1 17 8 42 16 56 10 16 13
18 8 5 -4 -11 -9 -34 -12 -52 l-4 -32 36 11 c31 10 36 16 37 42 2 30 2 30 6 4
5 -32 3 -31 37 -18 14 5 26 16 26 23 0 8 10 22 22 33 l22 19 -17 -25 c-9 -13
-17 -27 -17 -31 0 -7 210 57 219 68 3 3 -3 4 -15 1 -11 -3 -76 3 -145 13 -147
22 -259 23 -313 4z"/>
<path d="M700 1056 c-47 -14 -111 -33 -143 -43 l-57 -18 92 -11 c51 -6 97 -8
101 -4 4 4 -2 19 -14 35 -22 27 -22 27 -1 16 11 -6 24 -21 28 -33 9 -30 22
-38 62 -38 38 0 39 10 11 59 l-21 36 26 -28 c14 -15 26 -39 26 -51 0 -21 21
-35 53 -36 13 0 8 60 -8 90 -21 40 -10 38 15 -2 11 -18 20 -47 20 -64 0 -27 4
-33 28 -37 15 -3 29 -3 31 -1 5 4 -7 55 -24 109 -3 11 1 7 10 -8 9 -16 19 -47
23 -69 6 -36 12 -43 46 -54 l38 -14 -4 53 c-3 28 -9 61 -12 72 -5 13 -2 11 8
-5 8 -14 18 -47 22 -73 6 -42 11 -50 38 -61 40 -17 50 -7 37 40 -6 21 -8 40
-6 42 7 8 25 -47 25 -76 0 -23 8 -30 47 -47 26 -11 51 -21 55 -23 4 -2 -16 32
-45 75 -59 88 -112 129 -209 162 -99 34 -196 36 -298 7z"/>
<path d="M1955 1015 c-71 -26 -85 -34 -65 -37 14 -3 0 -6 -30 -7 -64 -2 -99
-16 -59 -25 13 -3 40 -7 59 -9 28 -3 25 -4 -13 -5 -27 -1 -56 2 -66 8 -22 11
-93 -8 -88 -24 2 -6 23 -17 48 -25 71 -22 88 -31 49 -24 -19 3 -55 14 -79 24
-45 20 -85 17 -78 -4 2 -7 30 -26 63 -44 32 -18 56 -33 52 -33 -17 0 -95 40
-112 58 -17 20 -20 20 -47 6 -16 -8 -29 -19 -29 -24 0 -13 50 -45 103 -65 26
-10 46 -20 44 -22 -8 -7 -115 37 -142 58 -23 19 -30 20 -56 9 -36 -15 -28 -28
46 -72 27 -16 42 -27 32 -24 -10 3 -22 6 -27 6 -5 0 -28 15 -52 33 -39 30 -46
32 -72 21 l-29 -11 24 -15 c13 -9 33 -21 44 -27 18 -11 18 -11 -5 -5 -14 4
-37 15 -51 25 -14 10 -34 16 -45 14 -10 -2 -32 -4 -48 -4 -25 -1 -28 -4 -23
-28 3 -16 21 -73 41 -128 20 -55 36 -119 36 -142 0 -35 3 -43 18 -43 29 0 32
10 16 42 -14 27 -104 273 -104 284 0 13 54 0 120 -28 62 -26 89 -31 155 -32
150 -2 249 52 343 184 29 41 68 96 87 123 19 26 33 46 32 46 -1 -1 -42 -16
-92 -34z"/>
<path d="M1262 669 c-7 -11 -11 -24 -8 -27 10 -9 28 15 24 32 -2 14 -5 13 -16
-5z"/>
<path d="M1290 661 c0 -11 5 -23 10 -26 6 -3 10 -11 10 -16 0 -6 -4 -7 -10 -4
-14 9 -12 -19 3 -34 10 -10 9 -11 -5 -6 -23 9 -23 -3 -1 -27 13 -15 14 -18 2
-13 -10 4 -15 -1 -15 -16 0 -20 1 -20 23 6 27 30 29 68 8 119 -17 40 -25 46
-25 17z"/>
</g>
</svg>
